<svg width="528" height="287" viewBox="0 0 528 287" xmlns="http://www.w3.org/2000/svg" xmlns:xlink="http://www.w3.org/1999/xlink"><title>Recruiters graphic</title><defs><path id="a" d="M0 400h560V0H0z"/><path id="c" d="M91.876 10.482V.026H.134v10.456h91.742z"/><path d="M.194 70.032V7.445A6.666 6.666 0 0 1 6.861.778h100.708a6.667 6.667 0 0 1 6.668 6.667v62.587H.194z" id="e"/><path id="g" d="M.162 56.895h87.404V.605H.162v56.29z"/><path d="M.084 46.052c1.377.334 2.813.512 4.288.513l1.949.002c10.06.006 18.295-8.219 18.3-18.277l.031-.122c.39.177.812.284 1.255.284 1.902.001 3.444-1.79 3.445-4 .002-2.209-1.538-4.002-3.44-4.002a3.004 3.004 0 0 0-1.255.282l-.031-2.234C24.632 8.442 16.407.207 6.349.2L4.399.198c-1.485 0-2.93.178-4.315.516v45.338z" id="i"/><path id="k" d="M0 400h560V0H0z"/><path d="M.614.585C.687.577.76.57.834.564l1.94-.172c.54-.046 1.076-.07 1.608-.07 9.35-.001 17.38 7.2 18.218 16.682l.227 2.222a3.002 3.002 0 0 1 1.225-.394c1.895-.166 3.588 1.482 3.781 3.682.195 2.203-1.183 4.122-3.078 4.288-.442.04-.87-.03-1.273-.171l-.024.125c.885 10.02-6.59 18.94-16.608 19.825l-1.942.171c-1.462.13-2.9.08-4.294-.129V.585z" id="m"/><path d="M.738.27L.955.25 2.897.078A18.012 18.012 0 0 1 4.505.007c9.35 0 17.38 7.201 18.217 16.683l.23 2.22a3.01 3.01 0 0 1 1.223-.392C26.07 18.35 27.762 20 27.957 22.2c.193 2.202-1.185 4.12-3.079 4.288-.441.04-.871-.03-1.275-.171l-.02.125c.884 10.02-6.591 18.94-16.611 19.825l-1.942.17c-1.461.129-2.9.08-4.293-.129V.27z" id="o"/></defs><g fill="none" fill-rule="evenodd"><g transform="translate(-16 -70)"><path d="M441.463 158.114c.687-1.38 2.673-2.356 4.687-2.305 2.013.054 3.896 1.132 4.445 2.545l-9.132-.24z" fill="#B0BEC5"/><path d="M476.506 134.728c6.876-4.375.02 15.337-1.102 23.409-.128.918-.357 6.531-.947 5.815-.178-.219-.905-2.002-.901-2.284.046-3.746.093-10.433.141-14.18 0 0 .397-11.226 2.809-12.76" fill="#B78B68"/><path d="M348.292 196.988c-2.83 2.83-5.343 3.178-6.678 1.841-1.335-1.335-.989-3.848 1.841-6.678s8.407-3.568 8.407-3.568-.74 5.575-3.57 8.405" fill="#DFE3E5"/><path d="M329.864 188.582s.74 5.575 3.57 8.405c2.83 2.83 5.342 3.179 6.678 1.844 1.335-1.337.987-3.849-1.843-6.679s-8.405-3.57-8.405-3.57m15.737 1.39c-1.805 1.805-3.408 2.027-4.26 1.175-.851-.851-.63-2.455 1.175-4.26 1.805-1.805 5.362-2.276 5.362-2.276s-.472 3.556-2.277 5.361" fill="#DFE3E5"/><path d="M333.848 184.611s.471 3.557 2.276 5.362c1.805 1.805 3.409 2.026 4.26 1.175.852-.852.63-2.455-1.175-4.26-1.805-1.805-5.361-2.277-5.361-2.277m7.015-7.681s-2.182 2.848-2.182 5.4c0 2.553.977 3.843 2.182 3.843s2.182-1.29 2.182-3.843c0-2.552-2.182-5.4-2.182-5.4" fill="#DFE3E5"/><path fill="#ECEFF1" d="M349.194 224.927h-16.06l-1.79-25.875h19.64z"/><mask id="b" fill="#fff"><use xlink:href="#a"/></mask><path fill="#ECEFF1" mask="url(#b)" d="M271.145 148.868h91.742v-67.83h-91.742z"/></g><g transform="translate(255.013 11.013)"><mask id="d" fill="#fff"><use xlink:href="#c"/></mask><path fill="#CFD8DC" mask="url(#d)" d="M-42.821 10.482h188.297v-38.06H-42.821z"/></g><path fill="#FFF" d="M261.14 37.54h7.783v-7.783h-7.783zm11.965 0h7.783v-7.783h-7.783zm11.968 0h7.784v-7.783h-7.784zm11.524 0h7.783v-7.783h-7.783zm11.966 0h7.784v-7.783h-7.784zm12.409 0h7.783v-7.783h-7.783zm11.965 0h7.783v-7.783h-7.783zM261.14 48.652h7.783v-7.784h-7.783zm11.965 0h7.783v-7.784h-7.783zm11.968 0h7.784v-7.784h-7.784zm11.524 0h7.783v-7.784h-7.783zm11.966 0h7.784v-7.784h-7.784zm12.409 0h7.783v-7.784h-7.783zm11.965 0h7.783v-7.784h-7.783zM261.14 59.71h7.783v-7.783h-7.783zm11.965 0h7.783v-7.783h-7.783zm11.968 0h7.784v-7.783h-7.784zm11.524 0h7.783v-7.783h-7.783zm11.966 0h7.784v-7.783h-7.784zm12.409 0h7.783v-7.783h-7.783zm11.965 0h7.783v-7.783h-7.783zM261.14 70.325h7.783v-7.783h-7.783zm11.965 0h7.783v-7.783h-7.783zm11.968 0h7.784v-7.783h-7.784zm11.524 0h7.783v-7.783h-7.783zm11.966 0h7.784v-7.783h-7.784zm12.409 0h7.783v-7.783h-7.783zm11.965 0h7.783v-7.783h-7.783z"/><path fill="#78909C" d="M300.405 15.35h1.028V4.862h-1.028z"/><path d="M304.498 4.348a3.58 3.58 0 1 1-7.158.002 3.58 3.58 0 0 1 7.158-.002" fill="#78909C"/><path d="M61.968 31.108c.997 7.267-1.658 14.509-2.082 21.83-.653 11.297 4.394 22.778 13.155 29.935 2.522 2.058 5.712 3.849 8.887 3.135 4.32-.971 6.342-5.923 7.112-10.283 2.495-14.102-1.11-29.175-9.712-40.623-1.82-2.424-3.912-4.737-6.59-6.157-2.677-1.422-6.042-1.825-8.728-.424-1.425.744-2.685 2.422-1.99 3.87" fill="#263238"/><path d="M11.332 86.265l5.857-4.591 20.353 21.228 30.13-33.53 12.097 8.117-35.568 37.148a6.172 6.172 0 0 1-6.124 1.817l-26.745-30.19z" fill="#F7CFB5"/><path d="M61.876 96.39c2.196-5.243 4.791-21.31 6.51-28.651C64.572 70.651 56.139 79.669 54 83.964" fill="#43A047"/><path d="M94.065 11.824c7.471 5.37 10.966 14.747 12.478 23.824 1.513 9.076 1.467 18.42 3.828 27.313 1.149 4.323 2.875 8.645 2.495 13.102-.378 4.454-3.831 9.098-8.295 8.808-2.176-.142-4.193-1.417-6.375-1.37-4.846.102-8.421 6.52-13.113 5.295-1.927-.502-3.288-2.224-4.202-3.994-4.82-9.341-.46-21.066 6.547-28.903 3.522-3.938 7.858-7.618 9.065-12.761 2.292-9.762-7.773-20.062-3.653-29.204" fill="#263238"/><path d="M527.333 277.221c0 5.322-117.898 9.637-263.333 9.637-145.435 0-263.333-4.315-263.333-9.637s117.898-9.637 263.333-9.637c145.435 0 263.333 4.315 263.333 9.637" fill="#ECEFF1"/><path d="M100.15 250.916c11.972 7.618-4.874 16.035-.48 23.598 0 0 4.664-2.807 9.686-8.282 5-5.453 7.69-8.675 10.158-12.816.967-1.62-10.481-6.53-12.655-9.559" fill="#F7CFB5"/><path d="M99.826 268.107c-.965 2.177-1.365 4.325-.155 6.407 0 0 4.662-2.805 9.684-8.282 5.001-5.453 7.69-8.675 10.16-12.816.403-.677-1.362-1.929-3.712-3.379 0 0-4.043 6.87-7.317 10.57-3.273 3.7-8.66 7.5-8.66 7.5" fill="#37474F"/><path d="M498.57 272.892c3.423-.463 10.91.537 7.86-3.57-8.963-12.073-3.742-22.651-3.958-56.33-.697-2.701-4.292-5.918-7.735-5.606-3.434.31-7.434 4.636-7.17 8.706 1.885 34.869 5.295 39.549 2.845 50.224-.842 3.666 7.921 6.608 8.158 6.576" fill="#B78B68"/><path d="M490.771 264.626c.023-.114 1.323.803 4.037 2.681 4.51 3.125 10.763 1.704 9.418-1.315 0 0 1.6 1.722 3.29 3.43 2.092 1.454 3.5 4.135 3.5 7.215h-2.307a1.147 1.147 0 0 1-.301.044h-17.26c-2.627 0-1.345-7.194-.377-12.055" fill="#36464E"/><path d="M491.297 265.789c-.593 3.065-1.565 8.681-.496 9.983a.4.4 0 0 0 .346.167h17.26a.483.483 0 0 0 .104-.015.712.712 0 0 1 .198-.027h1.535c-.2-2.425-1.368-4.627-3.152-5.865a.875.875 0 0 1-.103-.088 168.093 168.093 0 0 1-2.068-2.134c-.159.324-.4.624-.719.887-1.873 1.552-6.365 1.613-9.816-.78l-.764-.528c-.94-.652-1.761-1.22-2.325-1.6m17.11 11.631h-17.26a1.875 1.875 0 0 1-1.493-.706c-1.367-1.667-.833-6.095.388-12.232l.002-.003a.759.759 0 0 1 .457-.549c.465-.185.458-.191 3.966 2.24l.762.527c3.013 2.088 6.767 1.9 8.027.858.431-.358.521-.746.293-1.261a.74.74 0 0 1 1.22-.805c.017.015 1.582 1.7 3.228 3.365 2.357 1.668 3.76 4.573 3.76 7.783a.74.74 0 0 1-.741.742h-2.219c-.13.028-.261.041-.39.041" fill="#36464E"/><path d="M456.25 272.892c-22.206-3.005-12.796 3.08-7.86-3.57 8.964-12.073 3.742-22.651 3.959-56.33.697-2.701 4.292-5.918 7.735-5.606 3.433.31 7.433 4.636 7.17 8.706-1.885 34.869-5.295 39.549-2.845 50.224.842 3.666-7.922 6.608-8.158 6.576" fill="#B78B68"/><path d="M464.137 265.292c-.023-.113-1.84 1.862-5.005 2.682-3.443.895-6.673-.447-7.535-3.798 0 0-3.912 4.97-10.552 6.035-3.546.568-4.905 4.013-4.905 7.093h2.309c.096.027.196.043.301.043h25.01c2.627 0 1.345-7.193.377-12.055" fill="#36464E"/><path d="M436.91 276.228h1.538c.068 0 .135.01.198.029a.475.475 0 0 0 .103.013h25.012a.4.4 0 0 0 .347-.165c1.051-1.283.128-6.738-.469-9.832-.89.657-2.353 1.575-4.321 2.085-2.095.546-4.122.33-5.705-.601a5.775 5.775 0 0 1-2.292-2.505c-1.532 1.555-5.055 4.538-10.158 5.358-2.875.46-4.064 3.082-4.254 5.618m26.852 1.527h-25.012c-.13 0-.26-.015-.39-.041h-2.218a.743.743 0 0 1-.742-.744c0-3.202 1.449-7.172 5.53-7.825 6.28-1.008 10.047-5.715 10.084-5.761a.74.74 0 1 1 1.302.273c.32 1.243 1.03 2.22 2.051 2.822 1.242.731 2.868.888 4.578.443 2.33-.604 3.882-1.875 4.465-2.354.29-.236.565-.456.974-.311.245.087.43.3.481.555v.003c1.224 6.135 1.759 10.563.39 12.232a1.879 1.879 0 0 1-1.493.708" fill="#36464E"/><path d="M493.187 128.34c5.327.793 11.58 9.896 11.167 27.07-.222 9.22-1.655 101.873-1.655 101.873l-12.103-.127c-2.317-22.845-2.217-27.938-4.774-48.251-3.113-24.732-13.728-80.566-13.728-80.566h21.093z" fill="#546E7A"/><path d="M463.125 128.34c-5.327.793-12.58 9.896-12.167 27.07.222 9.22.822 101.873.822 101.873l13.603-.127c2.317-22.845 2.55-27.938 5.107-48.251 3.113-24.732 13.728-80.566 13.728-80.566h-21.093z" fill="#546E7A"/><path d="M527.326 56.836c-6.393.683-7.567-3.868-8.655-9.363-1.377-6.954-4.007-26.442-7.048-35.717-.187-.72-.352-1.313-.46-1.718-1.6-5.99-11.052-6.61-13.609-2.192-1.64 2.832 7.549 5.072 6.77 8.252l-.015.066c-2.903 11.067-6.001 28.769-5.32 32.687.93 5.375 3.164 11.402 7.995 13.937 16.844 8.836 20.537-5.972 20.342-5.952" fill="#263238"/><path d="M440.45 107.921c6.19 3.725 11.688 6.928 16.133 12.623.155-2.806.53-4.256.683-7.063.045-.83.087-1.687-.201-2.465-.305-.827-.949-1.475-1.574-2.095-2.018-2.005-4.123-4.067-6.79-5.057-1.963-.728-4.105-.823-6.195-.71-.838.045-1.723.142-2.4.639-.678.498-1.028 1.533-.523 2.203a6.35 6.35 0 0 0-1.273-3.678" fill="#B78B68"/><path d="M287.09 156.504c0-7.492 8.223-8.361 18.368-8.361v8.361H287.09z" fill="#37474F"/><path d="M312.254 151.297c-10.413.347-15.618 1.514-15.488-2.733.13-4.247 7.768-4.355 15.575-3.648 7.806.71-.087 6.381-.087 6.381" fill="#FFDBC2"/><path d="M316.22 151.726c-2.224-.512-4.2 1.853-7.81 2.005-3.612.148-6.035.216-7.175.205-.618-.007-.882-2.052 1.307-2.124 1.801-.058 4.66-.66 6.1-1.975 1.44-1.313 3.628-1.765 8.271-.573 4.642 1.192 2.339 3.16-.693 2.462" fill="#FFDBC2"/><path d="M326.386 206.4l-6.575 66.883a3.434 3.434 0 0 0 6.83.691l6.575-67.863" fill="#455A64"/><path d="M302.106 256.904c-3.23 4.844-17.018 5.834-17.018 5.834h-2.154a7.383 7.383 0 0 0-7.382 7.384h38.754v-13.218h-12.2z" fill="#78909C"/><path d="M347.583 153.893a7.757 7.757 0 0 0 5.308-2.33l27.552-31.353c2.961-2.918 3.27-5.535.475-8.613l-.417-2.385c-3.015-3.32-14.837-2.02-17.665 2.146l-16.588 29.785a3.869 3.869 0 0 1-2.325 1.612c-2.155.503-5.67.922-6.399.943l-31.46.949.29 10.115 41.229-.869z" fill="#1976D2"/><path d="M369.775 201.498l6.575 66.881a3.434 3.434 0 0 1-6.83.692l-6.575-67.864" fill="#455A64"/><path fill="#ECEFF1" d="M414.435 277.682h8.083V156.768h-8.083z"/><path fill="#CFD8DC" d="M394.685 272.473h8.083V156.768h-8.083z"/><path fill="#ECEFF1" d="M132.74 277.682h8.083V156.768h-8.083z"/><path fill="#CFD8DC" d="M153.31 272.473h8.083V156.768h-8.083z"/><path fill="#ECEFF1" d="M122.375 164.303h309.953v-10.651H122.375z"/><path fill="#455A64" d="M303.745 203.841h44.552l14.605-74.847h44.588l-14.605 74.847z"/><path d="M354.538 198.7h34.112l12.598-64.565h-34.111L354.538 198.7zm38.347 10.281h-89.14a5.14 5.14 0 1 1 0-10.281h40.317l13.793-70.69a5.14 5.14 0 0 1 5.047-4.157h44.588a5.14 5.14 0 0 1 5.047 6.125l-14.605 74.847a5.143 5.143 0 0 1-5.047 4.156z" fill="#455A64"/><path d="M392.885 208.982h-60.242a5.141 5.141 0 1 1 0-10.282h56.007l13.793-70.69a5.141 5.141 0 1 1 10.093 1.968l-14.604 74.847a5.142 5.142 0 0 1-5.047 4.157" fill="#546E7A"/><path d="M289.249 134.237H188.541a6.666 6.666 0 0 1-6.667-6.667V60.78a6.666 6.666 0 0 1 6.667-6.667h100.708a6.667 6.667 0 0 1 6.667 6.667v66.791a6.667 6.667 0 0 1-6.667 6.667" fill="#CFD8DC"/><g transform="translate(181.68 53.333)"><mask id="f" fill="#fff"><use xlink:href="#e"/></mask><path fill="#263238" mask="url(#f)" d="M-9.816 70.032h168.74v-87.945H-9.816z"/><path fill="#B0BEC5" mask="url(#f)" d="M4.122 65.228h105.435V5.47H4.122z"/></g><g transform="translate(196.68 61.667)"><mask id="h" fill="#fff"><use xlink:href="#g"/></mask><path fill="#FFF" mask="url(#h)" d="M.31 66.758h87.202V8.498H.311z"/><path d="M.31 66.798h87.202V8.122H.311v58.676zm.376-.416h86.45V8.873H.686v57.509z" fill="#CFD8DC" mask="url(#h)"/><path d="M87.512 3.531c0-1.543-1.178-2.927-2.72-2.927H2.954C1.41.604.31 1.988.31 3.531v5.343h87.202V3.531z" fill="#CFD8DC" mask="url(#h)"/><path fill="#FFF" mask="url(#h)" d="M.162 6.644v-.679l87.404-.02v.678z"/><path d="M4.605 6.682h-.029l.019-.752c.151-.005.621-.05.778-.312l1.645-2.845c.175-.29.413-.288 1.178-.29l.219.002h30c.151 0 .281-.002.39-.003.56-.004.793-.005.985.258l.021.033 1.649 2.844c.135.258.566.306.696.306l.015.752c-.045-.002-1 .013-1.37-.695l-1.59-2.743a7.03 7.03 0 0 0-.4-.002l-.396.002H8.195a9.301 9.301 0 0 0-.58.006L6.02 6c-.386.645-1.23.682-1.416.682" fill="#FFF" mask="url(#h)"/><path fill="#F6F6F6" mask="url(#h)" d="M.687 19.773h86.45v-10.9H.687z"/><path fill="#4285F4" mask="url(#h)" d="M65.336 16.015h4.51V11.88h-4.51z"/><path d="M66.76 13.665a.5.5 0 1 1 .5.5.5.5 0 0 1-.5-.5zm1.089.466a.787.787 0 0 0 .135-.444.732.732 0 0 0-.723-.733.718.718 0 1 0 0 1.436.756.756 0 0 0 .433-.136l.637.633.158-.12-.64-.636z" fill="#FFF" mask="url(#h)"/><path fill="#F6F6F6" mask="url(#h)" d="M4.069 34.058h59.012V23.533H4.069zm0 13.53h59.012V37.063H4.069zm0 13.909h59.012V50.972H4.069z"/><path d="M18.916 12.069V27.06s42.097-.068 46.232 0V12.07H18.916z" fill="#FFF" mask="url(#h)"/><path d="M19.104 12.257v14.615c3.027-.005 40.989-.062 45.855-.004V12.257H19.104zm46.232 14.995l-.192-.004c-4.085-.068-45.806-.001-46.228 0h-.188V11.88h46.608v15.372z" fill="#C5CFD4" mask="url(#h)"/><path d="M18.916 16.203v18.219s42.097-.1 46.232 0V16.203H18.916z" fill="#FFF" mask="url(#h)"/><path d="M19.104 16.391v17.844c3.027-.009 40.984-.094 45.855-.005V16.39H19.104zm46.232 18.224l-.193-.005c-4.085-.1-45.805 0-46.225 0l-.19.001V16.015h46.608v18.6z" fill="#C5CFD4" mask="url(#h)"/><path fill="#CFD8DC" mask="url(#h)" d="M20.984 14.888h13.532v-1.503H20.984zm0 8.645h13.532V22.03H20.984zm0-3.76h13.532V18.27H20.984zm0 7.894h13.532v-1.504H20.984zm0 4.135h13.532v-1.504H20.984z"/><path fill="#7E939E" mask="url(#h)" d="M36.017 19.773h9.397V18.27h-9.397zm0 3.76h5.639V22.03h-5.639zm0 4.134h7.894v-1.504h-7.894zm0 4.135h9.397v-1.504h-9.397z"/><path d="M8.463 14.022c0-.37-.267-.622-.577-.622-.31 0-.577.252-.577.622 0 .365.267.621.577.621.31 0 .577-.256.577-.621m.448 0a1.01 1.01 0 0 1-1.025 1.026 1.012 1.012 0 0 1-1.027-1.026 1.01 1.01 0 0 1 1.027-1.027 1.01 1.01 0 0 1 1.025 1.027" fill="#EB4335" mask="url(#h)"/><path d="M10.73 14.022c0-.37-.266-.622-.576-.622-.31 0-.577.252-.577.622 0 .365.267.621.577.621.31 0 .577-.256.577-.621m.448 0a1.01 1.01 0 0 1-1.025 1.026 1.012 1.012 0 0 1-1.027-1.026 1.01 1.01 0 0 1 1.027-1.027 1.01 1.01 0 0 1 1.025 1.027" fill="#FBBC05" mask="url(#h)"/><path d="M12.958 14.025c0-.361-.242-.626-.549-.626-.31 0-.561.265-.561.627 0 .358.251.618.561.618.307 0 .549-.26.549-.619zm.405-.981V14.9c0 .759-.452 1.069-.98 1.069a.98.98 0 0 1-.912-.607l.392-.163c.07.168.216.367.491.367.339 0 .524-.21.524-.604v-.175h.033c-.102.193-.295.247-.54.247-.513 0-.975-.44-.975-1.015 0-.58.462-1.02.975-1.02.245 0 .438.141.54.238h-.033v-.193h.485z" fill="#4285F4" mask="url(#h)"/><path fill="#34A853" mask="url(#h)" d="M13.654 14.98h.483v-3.002h-.483z"/><path d="M14.826 13.99l.916-.381c-.05-.129-.201-.217-.38-.217a.562.562 0 0 0-.536.599m1.076.37l.35.233a1.022 1.022 0 0 1-.855.453c-.583 0-1.018-.45-1.018-1.025 0-.611.438-1.027.968-1.027.532 0 .792.424.879.654l.046.117-1.373.566a.522.522 0 0 0 .498.312c.229 0 .389-.114.505-.284" fill="#EB4335" mask="url(#h)"/><path d="M6.641 13.238c.017.193.025.228.025.323 0 .327-.083.742-.371 1.03-.28.29-.637.452-1.112.452-.878 0-1.617-.713-1.617-1.592 0-.878.739-1.591 1.617-1.591.487 0 .832.19 1.093.44l-.308.306a1.108 1.108 0 0 0-.785-.31c-.642 0-1.143.517-1.143 1.159 0 .64.501 1.158 1.143 1.158.417 0 .653-.163.805-.315.125-.125.208-.285.24-.577H5.23v-.483h1.41z" fill="#4285F4" mask="url(#h)"/></g><path fill="#CFD8DC" d="M228.562 150.535h20.666v-19.568h-20.666z"/><path fill="#CFD8DC" d="M213.013 153.777H264v-3.575h-50.987z"/><path d="M314.306 262.361v-72.642c0-7.473-4.9-7.071-10.945-7.071-6.043 0-7.088 1.796-6.638 12.94l1.077 65.106 16.506 1.667z" fill="#263238"/><path d="M355.51 136.868c.271-4.107 2.6-11.058 3.438-15.088.392-1.884 2.805-9.127 4.03-10.609 1.487-1.798 2.755-2.821 4.988-3.496 3.925-1.185 10.915-.492 14.959-1.164 2.958-.493 5.885 1.349 8.323 3.094 2.583 1.85.997 5.995 1.522 9.128.161.958.293 2.04-.295 2.813-5.46-.058-10.057 2.797-14.879 5.362a70.032 70.032 0 0 1-17.575 6.512c-.52.116-4.015 4.148-4.518 3.97" fill="#2196F3"/><path d="M384.907 106.368c-1.556-5.605-.763-11.266 2.134-16.183-.309-.613-1.174-.65-1.839-.483-2.321.58-4.105 2.53-5.088 4.71-.983 2.181-1.287 4.598-1.58 6.973-.16 1.303-.318 2.643.008 3.917.327 1.273 1.254 2.48 2.542 2.738 1.288.258 3.608-.165 3.477-1.473" fill="#F7CFB5"/><path fill="#F7CFB5" d="M381.746 104.531l-12.318 7.02 2.397-24.597 11.295-1.003z"/><path d="M388.69 79.412c-.298 1.475-1.578 3.31-2.317 4.622-.74 1.312-1.025 2.092-2.52 2.265.173-1.227.347-2.462.302-3.7-.037-.967-.199-1.977.165-2.875.33-.817 2.098-9.345 2.966-9.493a2.65 2.65 0 0 1 2.385.845c.15.17-.8 8.441-1.025 8.436" fill="#414141"/><path d="M376.08 53.532l1.948.002c10.058.005 18.283 8.24 18.278 18.298l.03 2.233c.39-.176.812-.283 1.255-.283 1.902.002 3.442 1.793 3.44 4.003-.001 2.21-1.543 4-3.445 3.999-.443 0-.865-.105-1.253-.284l-.033.122c-.005 10.058-8.24 18.283-18.3 18.278l-1.95-.001c-10.058-.007-18.283-8.24-18.276-18.3l.005-9.789c.006-10.06 8.241-18.285 18.3-18.278" fill="#FFDBC2"/><g transform="translate(371.68 53.333)"><mask id="j" fill="#fff"><use xlink:href="#i"/></mask><path d="M11.92-7.5S33.573 42.577.083 46.318c0 0 38.717 10.739 40.704 10.757 1.985.018 2.065-69.242 2.255-69.71.188-.468-31.124 5.137-31.124 5.137" fill="#ECC3A9" mask="url(#j)"/></g><g transform="translate(-16 -70)"><path d="M323.488 269.481h55.404c5.945 0 10.765-4.82 10.765-10.765s-4.82-10.765-10.765-10.765h-55.404c-5.945 0-10.765 4.82-10.765 10.765s4.82 10.765 10.765 10.765z" fill="#263238"/><path d="M421.96 254.237c0 3.04.64 5.315 6.217 6.475 2.071.432 3.318.28 4.423-1.726.95-1.727-1.19-3.299-2.655-1.102-.345.518-.82.26-.497-.28.195-.323 2.527-5.957 3.477-7.77 2.245-4.284-6.39-7.944-8.462-3.282-1.93 4.345-2.503 4.645-2.503 7.685" fill="#FFDBC2"/><path d="M339.467 334.247c-3.23 4.845-17.019 5.835-17.019 5.835h-2.153a7.383 7.383 0 0 0-7.382 7.384h38.754v-13.219h-12.2z" fill="#90A4AE"/><path d="M351.667 338.642l4.307-78.923c0-7.472-4.9-7.07-10.945-7.07s-10.945-.402-10.945 7.07v77.847l17.583 1.076z" fill="#37474F"/><path d="M397.753 179.879a24.446 24.446 0 0 1-6.693 4.585c-1.667.77-3.906 1.241-5.124-.13-.975-1.099-.72-2.85.024-4.115 2.016-3.435 6.465-4.382 10.4-4.997 1.635-.255 3.883-.112 4.2 1.512" fill="#F7CFB5"/><path d="M384.042 145.503c-.069 1.011-.739 1.79-1.497 1.738-.758-.05-1.318-.912-1.25-1.923.068-1.012.738-1.79 1.497-1.739.758.05 1.318.912 1.25 1.924" fill="#231F1F"/><path d="M408.33 278.362l6.575 66.882a3.434 3.434 0 0 1-6.83.691l-6.575-67.863" fill="#78909C"/><path d="M397.412 146.665c-.068 1.012-.738 1.79-1.497 1.739-.758-.05-1.318-.912-1.25-1.924.069-1.011.739-1.79 1.497-1.738.758.05 1.318.912 1.25 1.923" fill="#231F1F"/><path d="M388.676 160.02c3.18.213 5.922-1.81 6.122-4.528l-.98-.072c-.16 2.179-2.434 3.797-5.075 3.619l-.039-.002c-1.303-.095-2.495-.608-3.353-1.445-.835-.814-1.253-1.837-1.177-2.882l-.98-.072c-.1 1.34.423 2.639 1.472 3.659 1.023.996 2.433 1.608 3.966 1.72l.044.003zm12.095-16.329a.597.597 0 0 0 .493-.985c-1.76-2.041-4.685-2.935-7.283-2.22a.594.594 0 0 0-.417.734.596.596 0 0 0 .734.418c2.126-.585 4.62.173 6.06 1.847a.6.6 0 0 0 .413.206m-21.905-1.695c.142.01.287-.03.407-.125 1.742-1.355 4.333-1.608 6.305-.615a.596.596 0 1 0 .538-1.065c-2.404-1.215-5.45-.916-7.576.739a.597.597 0 0 0 .326 1.066" fill="#414141"/><path d="M343.55 269.48h52.501c5.227 0 9.465-4.82 9.465-10.764 0-5.945-4.238-10.765-9.465-10.765H343.55c-5.227 0-9.466 4.82-9.466 10.765s4.239 10.765 9.466 10.765" fill="#37474F"/><path fill="#2196F3" d="M363.664 247.97l9.757-50.822 30.6-17.897"/><path d="M432.879 251.487l-10.613-1.928c.36-1.984.751-3.974 1.145-5.967 1.755-8.895 3.411-17.297 2.376-25.48-1.161-9.182-4.99-15.569-14.628-24.407-1.64-1.503-4.2-2.47-6.91-3.492-3.678-1.386-7.85-2.958-11.13-6.38l7.788-7.464c1.587 1.656.255.135 3.114 1.211 3.385 1.277 11.253 5.262 14.428 8.173 9.587 8.792 16.322 17.427 18.04 31.006 1.255 9.911-.65 19.575-2.495 28.921-.382 1.94-.765 3.877-1.115 5.807" fill="#2196F3"/><path d="M363.664 247.97s4.28 12.864 41.603 12.802l10.812-58.704s2.378-22.147-15.717-25.336" fill="#2196F3"/><mask id="l" fill="#fff"><use xlink:href="#k"/></mask><path fill="#78909C" mask="url(#l)" d="M353.357 309.133h54.855v-2.941h-54.855z"/><path d="M472.087 198.515l3.833-57.32c0-4.868.3-6.657 1.914-8.008 3.791-3.172 7.298-5.362 12.111-5.67l13.182-2.002c8.533 0 20.34 6.242 17.688 12.135l1.047 68.832-50.623-2.637.848-5.33z" fill="#FBBC05" mask="url(#l)"/><path fill="#FFF" mask="url(#l)" d="M441.463 162.95h11.523v-3.567l-11.523-.482z"/><path fill="#37474F" mask="url(#l)" d="M486.723 158.107l-2.75-2.506-9.682 10.627 2.748 2.505z"/><path d="M486.612 158.289c.617-.678.48-1.81-.307-2.525-.783-.717-1.923-.747-2.54-.069l2.847 2.594z" fill="#37474F" mask="url(#l)"/><path fill="#FFF" mask="url(#l)" d="M477.04 168.732l-3.716 1.317.967-3.82"/><path fill="#6A7890" mask="url(#l)" d="M475.155 169.364l-1.347-1.225-.483 1.909z"/><path fill="#FFF" mask="url(#l)" d="M483.974 155.602l2.774 2.475-.844.948-2.784-2.483z"/><path d="M491.205 178.501c-7.095-2.103-15.74-6.647-21.955-10.663.872-2.415 2.063-5.145 4.533-5.85.729-.209 1.5-.209 2.259-.209 2.056.002 4.353.1 5.79 1.574.995 1.018 1.353 2.495 2.171 3.66 1.402 1.998 3.929 2.823 6.304 3.393" fill="#B78B68" mask="url(#l)"/><path fill="#546E7A" mask="url(#l)" d="M496.632 185.99l-27.515-3.076-37.007-23.541 26.687 1.153z"/><path d="M450.962 170.746c-.423.639.037 1.972.24 2.71 1.774 6.404 8.478 4.975 12.185 8.19.995-1.381.375-3.333-.528-4.776-1.315-2.105-3.203-3.887-5.478-4.88-2.275-.994-4.11-2.155-6.419-1.244m-56.297-49.212c-3.607-2.947-8.817-3.792-13.17-2.135-1.615.615-3.202 1.655-3.823 3.268-.622 1.612.171 3.808 1.865 4.15-2.243.507-4.628 1.092-6.195 2.775-1.567 1.683-1.728 4.848.267 5.993 1.991 1.144 4.393-.353 6.33-1.588 1.938-1.235 4.896-2.07 6.21-.187.365.525.521 1.187.964 1.647 1.209 1.253 3.342.102 4.402-1.28 1.059-1.382 2.105-3.165 3.845-3.258 1.883-.1 3.115 1.833 4.35 3.26 1.237 1.425 3.86 2.336 4.742.668 1.595 1.572 1.361 4.208.643 6.33-.717 2.12-1.82 4.233-1.595 6.46.227 2.228 2.65 4.382 4.612 3.302 2.621-1.442 1.651-6.752 4.613-7.182.617-.088 1.273.1 1.852-.127.557-.216.905-.766 1.165-1.305 1.861-3.846.926-8.855-2.197-11.77-.298-.278-.617-.543-.84-.885-.433-.658-.446-1.495-.495-2.28-.283-4.641-2.631-9.488-6.925-11.275-4.292-1.786-10.262.982-10.497 5.625" fill="#B78B68" mask="url(#l)"/><path d="M400.695 119.143c-1.144-2.858-4.195-4.833-7.27-4.705-3.075.129-5.952 2.352-6.854 5.295-.246.807-.35 1.702-.023 2.48.502 1.2 1.843 1.784 3.08 2.19 2.635.868 5.56 1.455 8.138.432 2.579-1.025 4.43-4.228 3.125-6.677m-21.502 6.052c-1.65 1.121-3.495 1.93-5.157 3.035-1.66 1.105-3.185 2.6-3.721 4.521-.537 1.922.211 4.294 2.041 5.092 2.562 1.117 5.247-1.185 7.05-3.323 1.427-1.69 2.877-3.544 3.122-5.742.247-2.198-1.278-4.735-3.49-4.722m30.135-.454c-.254 1.306.763 2.543 1.916 3.206 1.154.664 2.49.972 3.614 1.684 2.878 1.823 3.59 5.665 3.801 9.065.172 2.748.067 5.84-1.898 7.77-.238.235-.517.455-.847.501-.405.06-.796-.146-1.153-.346-1.967-1.102-4.078-2.367-4.87-4.477-.57-1.515-.343-3.195-.275-4.812a23.83 23.83 0 0 0-2.542-11.724m95.144 3.033c-.987-5.62.343-10.423 3.238-15.338-.307-.613-1.172-.65-1.837-.485-2.321.58-4.106 2.53-5.09 4.712-.981 2.181-1.286 4.596-1.578 6.971-.162 1.304-.32 2.645.007 3.917.326 1.273 1.255 2.48 2.543 2.739 1.288.258 2.788-.8 2.657-2.107" fill="#B78B68" mask="url(#l)"/><path fill="#B78B68" mask="url(#l)" d="M500.204 125.524l-11.143 3.29.242-20.867 12.275-1.003z"/><path d="M507.148 100.406c-.298 1.474-1.578 3.31-2.317 4.621-.74 1.312-1.025 2.092-2.52 2.265.174-1.227.347-2.462.302-3.7-.037-.966-.198-1.977.163-2.875.332-.817 2.1-9.345 2.969-9.493a2.65 2.65 0 0 1 2.385.845c.15.17-.8 8.441-1.025 8.436" fill="#414141" mask="url(#l)"/><path d="M492.5 74.91l1.941-.172c10.019-.883 18.94 6.592 19.825 16.61l.229 2.222a3.01 3.01 0 0 1 1.223-.392c1.895-.166 3.588 1.482 3.782 3.682.194 2.202-1.184 4.122-3.079 4.288a2.98 2.98 0 0 1-1.273-.171l-.022.125c.884 10.018-6.591 18.94-16.61 19.825l-1.942.17c-10.02.885-18.941-6.59-19.825-16.61l-.86-9.752c-.885-10.02 6.59-18.942 16.61-19.825" fill="#B78B68" mask="url(#l)"/></g><g transform="translate(475.667 4.346)"><mask id="n" fill="#fff"><use xlink:href="#m"/></mask><path d="M7.641-7.769S33.643 40.193.614 46.884c0 0 39.515 7.27 41.495 7.114 1.98-.159-4.07-69.154-3.921-69.637.146-.483-30.547 7.87-30.547 7.87" fill="#A47B5B" mask="url(#n)"/></g><g><path d="M471.48 27.477c-.068 1.011-.738 1.79-1.496 1.738-.758-.05-1.318-.912-1.25-1.923.068-1.012.738-1.79 1.497-1.739.758.05 1.318.912 1.25 1.924m13.369 1.162c-.068 1.012-.738 1.79-1.496 1.738-.758-.05-1.318-.911-1.25-1.923.068-1.012.738-1.79 1.497-1.738.758.05 1.318.911 1.25 1.923" fill="#231F1F"/><path d="M476.115 41.994c3.18.213 5.921-1.81 6.121-4.528l-.98-.072c-.16 2.178-2.433 3.797-5.075 3.618l-.038-.001c-1.303-.095-2.495-.609-3.353-1.445-.835-.814-1.254-1.837-1.177-2.882l-.98-.072c-.1 1.34.423 2.639 1.472 3.659 1.023.996 2.433 1.608 3.966 1.72l.044.003m12.095-16.329a.597.597 0 0 0 .493-.985c-1.76-2.042-4.685-2.935-7.283-2.22a.594.594 0 0 0-.417.733.596.596 0 0 0 .734.419c2.126-.585 4.62.173 6.06 1.846.11.127.26.197.413.207m-21.905-1.695c.142.01.287-.03.407-.125 1.742-1.355 4.333-1.608 6.305-.615a.596.596 0 1 0 .538-1.065c-2.405-1.215-5.45-.916-7.576.739a.597.597 0 0 0 .326 1.066" fill="#414141"/><path d="M473.062 57.596c-.364 3.61.575 8.118 3.948 9.455 3.045 1.207 6.585-1.028 7.953-4.005 1.37-2.975 1.633-6.1.98-9.623-4.575-1.647-10.361.265-12.913 4.405m28.385 61.414c3.228.586 6.822.893 9.547-.937.762-.512 1.46-1.257 1.535-2.172.062-.726-.282-1.423-.667-2.043-3.165-5.11-14.343-7.488-20.256-8.573-5.912-1.084-7.065-1.24-12.656-3.447-2.048-.808-4.135-1.907-6.32-1.628-2.183.28-4.176 2.825-2.96 4.66.432.651 2.292.775 1.84 1.413-.755 1.068 9.07 4.835 13.604 7.252" fill="#B78B68"/><path fill="#455A64" d="M416.11 87.412v1.962l26.687 1.152 37.835 25.463v-1.96l-37.835-25.465z"/><path d="M478.866 6.964c-1.81 4.036-5.68 6.691-9.366 9.135-2.674 1.771-5.545 3.606-8.75 3.641-.309.004-.635-.016-.887-.191-.507-.35-.467-1.1-.348-1.704 1.04-5.251 4.25-10.295 9.156-12.438 2.105-.918 4.405-1.273 6.675-1.618 1.804-.275 3.672-.547 5.429-.054.48.135.986.364 1.203.814.453.933-.61 1.866-1.54 2.328-.93.46-2.062 1.222-1.797 2.227" fill="#263238"/><path d="M465.987 6.422c.405-.958 1.37-1.54 2.294-2.018 2.116-1.092 4.38-1.983 6.753-2.19 2.372-.208 4.878.332 6.718 1.843.49.402.964 1.034.715 1.617-.105.248-.323.428-.548.575-1.193.78-2.688.872-4.095 1.1a19.01 19.01 0 0 0-7.255 2.798c-1.127.73-2.395 1.625-3.687 1.259-.523-.149-.976-.5-1.298-.937-.95-1.288-.608-3.337.71-4.247" fill="#263238"/><path d="M503.808 108.744a183.281 183.281 0 0 1-8.362-35.547c-.572-4.325-.625-9.538 2.92-12.082.84-.603 1.884-1 2.904-.835 1.871.3 2.95 2.26 3.593 4.042 1.341 3.725 2.008 7.653 2.67 11.557l5.633 33.228c.32 1.885.637 3.837.17 5.692-.468 1.855-1.941 3.6-3.848 3.751-2.348.189-4.217-1.996-5.102-4.181-.883-2.184-1.261-4.639-2.731-6.48" fill="#B78B68"/><path d="M91.943 67.926c-1.803-4.94-1.786-10.52.047-15.449-.378-.506-1.168-.4-1.745-.141-2.013.9-3.317 2.958-3.857 5.095-.538 2.138-.423 4.38-.305 6.581.065 1.209.137 2.45.64 3.552.502 1.102 1.539 2.048 2.749 2.073 1.211.027 2.401-1.176 2.07-2.34" fill="#E6E7E8"/><path d="M91.522 64.728c-1.332-5.086-.5-11.25 1.788-15.985-.33-.54-1.585-.233-2.183-.03-2.088.709-3.578 2.635-4.317 4.712-.738 2.078-.833 4.32-.921 6.523-.05 1.21-.094 2.454.303 3.597.397 1.145 1.34 2.183 2.542 2.323 1.203.139 2.501.034 2.281-1.156" fill="#F7CFB5"/><path d="M85.167 63.96c1.363 1.875.293 4.491-1.09 6.351a22.867 22.867 0 0 1-5.478 5.24c-1.427.97-3.435 1.759-4.799.71-1.091-.836-1.756-2.468-1.273-3.736 1.308-3.442 5.912-5.02 9.478-6.214 1.48-.495 3.6-.728 4.165.694" fill="#E6E7E8"/><path fill="#F7CFB5" d="M75.945 51.738l11.042-2.995L88.91 67.44l-10.5 9.695"/><path d="M92.938 37.412c-.299 1.475-1.579 3.31-2.317 4.621-.74 1.312-1.025 2.092-2.52 2.265.173-1.226.347-2.461.302-3.7-.037-.966-.199-1.976.163-2.875.332-.816 2.1-9.345 2.968-9.493a2.65 2.65 0 0 1 2.385.845c.15.17-.8 8.442-1.025 8.437" fill="#414141"/><path d="M78.29 11.916l1.94-.171c10.02-.884 18.94 6.591 19.826 16.61l.228 2.221a3.01 3.01 0 0 1 1.224-.391c1.895-.167 3.588 1.481 3.781 3.681.195 2.202-1.183 4.122-3.078 4.289a2.98 2.98 0 0 1-1.273-.172l-.022.125c.883 10.018-6.592 18.94-16.61 19.825l-1.942.17c-10.02.885-18.941-6.59-19.825-16.61l-.86-9.752c-.885-10.02 6.59-18.941 16.61-19.825" fill="#F7CFB5"/></g><g transform="translate(77.333 11.667)"><mask id="p" fill="#fff"><use xlink:href="#o"/></mask><path d="M7.764-8.084S33.766 39.878.737 46.57c0 0 39.516 7.27 41.496 7.113 1.98-.158-4.07-69.153-3.922-69.637.147-.483-30.547 7.87-30.547 7.87" fill="#EBC2A7" mask="url(#p)"/></g><g><path d="M73.27 34.483c-.068 1.011-.738 1.79-1.496 1.738-.759-.05-1.319-.912-1.25-1.923.068-1.012.738-1.79 1.496-1.739.759.05 1.319.912 1.25 1.924m13.37 1.162c-.068 1.012-.738 1.79-1.496 1.738-.759-.05-1.319-.911-1.25-1.923.068-1.011.738-1.79 1.496-1.738.759.05 1.319.911 1.25 1.923" fill="#231F1F"/><path d="M77.904 49c3.18.213 5.922-1.81 6.122-4.528l-.98-.072c-.16 2.178-2.433 3.797-5.075 3.618l-.038-.001c-1.304-.095-2.495-.609-3.354-1.445-.835-.814-1.253-1.837-1.176-2.882l-.98-.072c-.1 1.34.423 2.639 1.471 3.659 1.024.996 2.434 1.608 3.967 1.72l.043.003M90 32.671a.597.597 0 0 0 .493-.985c-1.76-2.041-4.685-2.935-7.283-2.22a.594.594 0 0 0-.417.733.596.596 0 0 0 .733.419c2.127-.585 4.62.173 6.06 1.847a.6.6 0 0 0 .414.206m-21.905-1.695c.142.01.287-.03.407-.125 1.741-1.355 4.333-1.608 6.305-.615a.596.596 0 1 0 .538-1.065c-2.405-1.215-5.45-.916-7.577.739a.597.597 0 0 0 .327 1.066" fill="#263238"/><path d="M100.637 28.588s-23.674 5.655-27.632-11.863c0 0-1.962-2.74 1.158-6.015 0 0 5.754-6.294 15.454-2.259 4.416 1.835 7.953 5.295 10.155 9.54 2.258 4.354 4.496 10.109.865 10.597" fill="#263238"/><path d="M73.005 16.724s-6.188 17.153-13.051 9.26c0 0 5.866-21.098 18.17-17.107l-5.119 7.847z" fill="#263238"/><path d="M16.44 82.863A4.78 4.78 0 0 1 7 81.355a4.779 4.779 0 1 1 9.44 1.508" fill="#F7CFB5"/><path d="M12.495 86.225a1.493 1.493 0 0 1-.546-.054l-10.474-3.05c-.655-.19-.976-.781-.72-1.32.255-.537.99-.822 1.65-.63L12.88 84.22c.654.191.977.781.72 1.321-.186.39-.626.645-1.105.683m1.725-4.254c-.16-.081-.307-.2-.427-.353L6.888 72.72A1.275 1.275 0 0 1 8.9 71.157l6.907 8.898a1.274 1.274 0 0 1-1.589 1.915" fill="#F7CFB5"/><path d="M11.66 85.887a1.275 1.275 0 0 1-.493-.252l-8.695-7.158a1.276 1.276 0 0 1-.174-1.795 1.273 1.273 0 0 1 1.795-.172l8.695 7.158c.544.447.62 1.252.174 1.795a1.278 1.278 0 0 1-1.302.424m1.497-2.401a1.275 1.275 0 0 1-.475-.285l-8.167-7.755a1.276 1.276 0 0 1-.045-1.804 1.27 1.27 0 0 1 1.802-.045l8.166 7.755a1.276 1.276 0 0 1-1.281 2.133" fill="#F7CFB5"/><path d="M10.038 73.881l1.83 2.54c.18.25.375.512.657.637.79.348 1.16.565 1.163-.299.004-.863.009-2.873.004-3.736-.007-.862.766-1.85 1.566-1.527.295.12.502.388.664.663 1.238 2.105.506 4.779.861 7.195a7.963 7.963 0 0 0 2.702 4.869c.593.505 1.322 1.021 1.392 1.798.086.958-.982 1.697-1.944 1.64-.96-.055-1.795-.648-2.565-1.227-2.016-1.513-4.035-3.115-5.396-5.235-1.362-2.12-1.977-4.876-.992-7.196l-1.202-.29" fill="#F7CFB5"/><path d="M479.204 4.741c2.12-4.615 8.7-5.78 13.166-3.36 4.466 2.42 7.031 7.337 8.34 12.245.658 2.472 1.055 5.147.173 7.548-.88 2.402-3.4 4.36-5.902 3.825-3.303-.706-4.518-4.853-7.308-6.756-1.927-1.315-4.438-1.439-6.497-2.535-2.141-1.142-3.67-3.369-3.961-5.779-.292-2.41.658-4.936 2.466-6.556" fill="#263238"/><path d="M482.72 4.867c-2.914-4.912-10.43-5.383-15.108-2.105-4.675 3.278-6.903 9.094-7.78 14.735-.083.529-.14 1.123.186 1.547.561.733 1.715.398 2.546-.002l15.068-7.248c1.574-.757 3.199-1.555 4.296-2.91 1.098-1.357 1.501-3.444.45-4.835" fill="#263238"/><path d="M84.53 259.697c3.33 13.796-14.64 8.159-16.726 16.654 0 0 5.305 1.216 12.72.762 7.385-.454 11.557-.906 16.209-2.172 1.821-.497-3.01-11.978-2.472-15.665" fill="#F7CFB5"/><path d="M72.364 271.847c-2.207.897-3.985 2.165-4.56 4.504 0 0 5.305 1.218 12.72.761 7.387-.453 11.557-.905 16.21-2.171.76-.207.358-2.334-.327-5.009 0 0-7.68 2.139-12.603 2.529-4.925.391-11.44-.614-11.44-.614m3.6-61.813c-2.527-4.048-5.707-12.273-7.793-16.565" fill="#37474F"/><path d="M70.08 195.469l9.976-39.695 1.355 53.34-11.331-13.645zm39.925 48.078L97.86 228.924l2.562-46.314c8.577-61.92-9.922-68.41-9.922-68.41l-23.61 10.414-15.52 67.99c-.59 1.945-1.21 4.286-.084 5.978 10.85 16.273 20.679 26.548 30.81 37.5l.724 28.535h13.068l.672-12.138a246.25 246.25 0 0 1 2.951 3.66l10.494-12.592z" fill="#37474F"/><path d="M77.496 65.65l1.682 10.71 8.323-9.79c2.632-3.095 11.04-3.388 14.047-.655l.436 18.378-7.278 20.282a7.836 7.836 0 0 0-.151 4.832l5.29 18.26-34.975 3.677-2.89-38.734c-2.813-25.317 12.447-28.248 12.447-28.248 1.232-.172 1.988-.372 2.723-.155" fill="#4CAF50"/><path d="M125.437 149.923l-33.91-73.285a4.904 4.904 0 0 1 8.93-4.055l33.018 76.027" fill="#F7CFB5"/><path d="M98.867 92.575l-5.685-11.477c-1.592-3.212-3.225-6.632-2.924-10.204.302-3.571 3.372-7.166 6.919-6.645 2.343.346 4.106 2.287 5.441 4.244 5.207 7.638 6.982 17.011 9.447 25.92 2.927 10.572 5.997 20.83 11.082 30.547.441.843.901 1.813.571 2.705-.418 1.133-.89 1.478-2.093 1.376-3.198-.273-5.965-2.481-7.772-5.133-1.806-2.654-2.825-5.749-3.95-8.754-3.57-9.543-5.07-14.321-11.036-22.58" fill="#F7CFB5"/><path d="M89.908 74.073c2.66 6.535 4.853 12.86 8.502 18.9 3.793-1.493 8.498-3.162 12.138-4.997-1.868-7.785-3.462-15.16-8.388-21.471-.659-.847-2.082-1.817-3.364-2.104-2.583-.575-3.226-.256-4.28.142-4.305 1.63-6.293 7.552-3.845 11.45" fill="#43A047"/><path d="M125.168 149.159c.825 1.838 1.84 3.858 3.745 4.513.8.275 1.663.268 2.508.257l13.653-.162c2.2-.027 3.37-.128 6.547-.167-.807-.916-2.005-1.866-3.153-2.285l-4.372-1.59c-1.13-.41-2.265-.821-3.442-1.063-2.353-.483-6.748-.27-9.14-.053.247-1.732.405-3.202-1.341-3.285-1.749-.084-3.38.793-4.91 1.643-.317.177-.672.412-.695.773-.022.362.611.587.683.232" fill="#F7CFB5"/><path d="M72.919 16.569c1.85 5.94 7.11 10.683 13.208 11.91 1.965.396 3.995.453 5.932.973 2.365.635 4.703 1.967 7.108 1.497.744-.147 1.482-.489 1.932-1.099.867-1.178.387-2.845-.267-4.153-2.356-4.713-6.64-8.428-11.638-10.095-4.998-1.667-10.653-1.267-15.367 1.09-.286.143-.655.287-.903.082-.247-.205.175-.712.317-.424" fill="#263238"/></g></g></svg>